<?xml version="1.0" encoding="UTF-8"?>
<svg xmlns="http://www.w3.org/2000/svg" xmlns:xlink="http://www.w3.org/1999/xlink" width="48pt" height="48pt" viewBox="0 0 48 48" version="1.1">
<g id="surface1668149">
<path style=" stroke:none;fill-rule:nonzero;fill:rgb(100%,100%,100%);fill-opacity:1;" d="M 6 10 C 6 7.800781 7.800781 6 10 6 L 38 6 C 40.199219 6 42 7.800781 42 10 L 42 38 C 42 40.199219 40.199219 42 38 42 L 10 42 C 7.800781 42 6 40.199219 6 38 Z M 6 10 "/>
<path style=" stroke:none;fill-rule:nonzero;fill:rgb(20.392157%,59.607843%,85.882353%);fill-opacity:1;" d="M 10 12.199219 C 10 11 11 10 12.199219 10 L 19.800781 10 C 21 10 22 11 22 12.199219 L 22 33.800781 C 22 35 21 36 19.800781 36 L 12.199219 36 C 11 36 10 35 10 33.800781 Z M 26 22.800781 C 26 24 27 25 28.199219 25 L 35.800781 25 C 37 25 38 24 38 22.800781 L 38 12.199219 C 38 11 37 10 35.800781 10 L 28.199219 10 C 27 10 26 11 26 12.199219 Z M 26 22.800781 "/>
</g>
</svg>
